<svg version="1.2" xmlns="http://www.w3.org/2000/svg" viewBox="0 0 319 1007" width="319" height="1007">
	<title>1vs100Logo</title>
	<style>
		.s0 { opacity: 1;fill: #010100 } 
	</style>
	<path id="Path 0" class="s0" d="m127.1 5.5c-11.6 4.2-22.7 10.8-29.7 17.8-10.9 11-11.1 11.5-11.1 34 0 16.5 1.5 25.9 5.4 33.3 3 5.7 7.4 19 9.9 29.6 2.4 10.6 5 22.3 5.7 25.9 0.8 4.4-2.2 11-8.7 19.3-7.5 9.5-13.4 13.5-23.7 16.3-7.6 2-16.8 6.4-20.4 9.7-3.7 3.4-8.7 7.7-11.1 9.8-2.5 2-8.3 5.6-13 8-4.7 2.4-9.2 6.3-10 8.8-0.8 2.4-4.9 11.7-9 20.7-5.8 12.6-8.1 24-10.2 50.3-1.8 23.3-1.5 41.6 0.8 57.8 1.8 13 4.4 44.4 5.6 69.6 2.1 42.9 2.9 47.1 11.2 63.7 4.9 9.8 10.7 23.1 12.8 29.6 2.1 6.5 5.7 15.2 7.8 19.2 2.2 4.1 3.9 10.1 3.9 13.4 0 3.2 2.7 13.9 6.1 23.7 4.8 13.7 6.5 27.8 7.6 62.2 1 28.6 3.5 52.8 7.2 68.1 4.2 18 6.3 43.9 8.7 107.4 1.8 49.3 4.4 86.4 6.3 90.3 1.9 3.7 4.6 28 6 54 1.5 26.1 3.3 50.1 4 53.4 1.2 5.7 3.5 5.9 70.3 5.5l69-0.4c3-89.5 5.4-112.9 11.1-141.4 4.3-21.2 10-49.8 12.7-63.7 2.7-13.8 6.1-34.1 7.5-45.1 1.5-11 4-29 5.5-40 1.5-11 4.8-29.3 7.3-40.7 2.6-11.4 4.7-33.4 4.7-48.9 0.1-15.5 1.5-37.1 3.1-48.1 1.5-11 5.4-25 8.6-31.1 3.1-6.1 7.8-13.1 10.5-15.6 2.9-2.7 4.7-9 4.6-16.3-0.1-6.5 2.4-21.2 5.5-32.6 3.2-11.8 6.5-37.3 7.7-59.2 1.4-25.9 0.9-44.3-1.4-56.3-2-9.7-5.4-23.4-7.7-30.3-2.4-7.1-4.2-23.9-4.2-38.5 0.1-16.1-1.7-31-4.6-39.3-2.5-7.3-6.6-15.3-8.9-17.7-2.4-2.5-5.2-10.5-6.2-17.8-1-7.3-3.5-16.7-5.5-20.7-2-4.1-8.1-9.3-13.7-11.6-5.5-2.2-14.6-7.1-20.3-10.8-5.7-3.6-17.1-8.1-25.2-9.9-8.2-1.8-17.5-6.1-20.8-9.5-4-4.3-5.8-10.1-5.7-18.5 0.1-7.8 4.2-20.4 11-34.5 9.4-19.3 10.9-25.1 11-43.7 0-18.4-1.4-24.3-9.6-40.8-5.3-10.6-10.9-19.8-12.6-20.5-1.6-0.6-12.9-1.9-25.2-2.8-18.4-1.4-25.3-0.6-40.6 4.9z"/>
</svg>