<svg width="106" height="103" viewBox="0 0 106 103" fill="none" xmlns="http://www.w3.org/2000/svg">
<path class="Person" fill="#1C1B1F" d="M53 49.9652C45.74 49.9652 39.8 47.6522 35.18 43.0261C30.56 38.4 28.25 32.4522 28.25 25.1826C28.25 17.9131 30.56 11.9652 35.18 7.33916C39.8 2.71307 45.74 0.400024 53 0.400024C60.26 0.400024 66.2 2.71307 70.82 7.33916C75.44 11.9652 77.75 17.9131 77.75 25.1826C77.75 32.4522 75.44 38.4 70.82 43.0261C66.2 47.6522 60.26 49.9652 53 49.9652ZM0.2 103V87.4696C0.2 83.2841 1.245 79.7044 3.335 76.7305C5.425 73.7565 8.12 71.4986 11.42 69.9566C18.79 66.6522 25.8575 64.1739 32.6225 62.5218C39.3875 60.8696 46.18 60.0435 53 60.0435C59.82 60.0435 66.585 60.8971 73.295 62.6044C80.005 64.3116 87.045 66.7623 94.415 69.9566C97.825 71.4986 100.575 73.7565 102.665 76.7305C104.755 79.7044 105.8 83.2841 105.8 87.4696V103H0.2Z"/>
</svg>
